<svg width="30" height="30" viewBox="0 0 30 30" fill="none" xmlns="http://www.w3.org/2000/svg">
<g clip-path="url(#clip0_108_347)">
<path d="M7.5 0C5.43164 0 3.75 1.68164 3.75 3.75V9.375H7.5V3.75H20.7832L22.5 5.4668V9.375H26.25V5.4668C26.25 4.4707 25.8574 3.51562 25.1543 2.8125L23.4375 1.0957C22.7344 0.392578 21.7793 0 20.7832 0H7.5ZM22.5 20.625V22.5V26.25H7.5V22.5V21.5625V20.625H22.5ZM26.25 22.5H28.125C29.1621 22.5 30 21.6621 30 20.625V15C30 12.9316 28.3184 11.25 26.25 11.25H3.75C1.68164 11.25 0 12.9316 0 15V20.625C0 21.6621 0.837891 22.5 1.875 22.5H3.75V26.25C3.75 28.3184 5.43164 30 7.5 30H22.5C24.5684 30 26.25 28.3184 26.25 26.25V22.5ZM25.3125 14.5312C25.6855 14.5313 26.0431 14.6794 26.3069 14.9431C26.5706 15.2069 26.7188 15.5645 26.7188 15.9375C26.7188 16.3105 26.5706 16.6681 26.3069 16.9319C26.0431 17.1956 25.6855 17.3438 25.3125 17.3438C24.9395 17.3438 24.5819 17.1956 24.3181 16.9319C24.0544 16.6681 23.9062 16.3105 23.9062 15.9375C23.9062 15.5645 24.0544 15.2069 24.3181 14.9431C24.5819 14.6794 24.9395 14.5313 25.3125 14.5312Z" fill="#FFFBF9"/>
</g>
<defs>
<clipPath id="clip0_108_347">
<rect width="30" height="30" fill="white"/>
</clipPath>
</defs>
</svg>
