<svg width="31" height="30" viewBox="0 0 31 30" fill="none" xmlns="http://www.w3.org/2000/svg">
<path d="M10.7555 3.27437C10.3544 2.30562 9.29714 1.78999 8.28672 2.06603L3.70339 3.31603C2.79714 3.56603 2.16693 4.38895 2.16693 5.32645C2.16693 18.2119 12.6148 28.6598 25.5003 28.6598C26.4378 28.6598 27.2607 28.0296 27.5107 27.1233L28.7607 22.54C29.0367 21.5296 28.5211 20.4723 27.5523 20.0712L22.5523 17.9879C21.7034 17.6337 20.719 17.8785 20.1409 18.5921L18.0367 21.1598C14.3701 19.4254 11.4013 16.4567 9.66693 12.79L12.2346 10.691C12.9482 10.1077 13.193 9.12853 12.8388 8.27958L10.7555 3.27958V3.27437Z" fill="#FFFBF9"/>
</svg>
