<svg width="31" height="30" viewBox="0 0 31 30" fill="none" xmlns="http://www.w3.org/2000/svg">
<g clip-path="url(#clip0_91_172)">
<path d="M3.3125 3.75C1.75977 3.75 0.5 5.00977 0.5 6.5625C0.5 7.44727 0.916016 8.2793 1.625 8.8125L14.375 18.375C15.043 18.873 15.957 18.873 16.625 18.375L29.375 8.8125C30.084 8.2793 30.5 7.44727 30.5 6.5625C30.5 5.00977 29.2402 3.75 27.6875 3.75H3.3125ZM0.5 10.3125V22.5C0.5 24.5684 2.18164 26.25 4.25 26.25H26.75C28.8184 26.25 30.5 24.5684 30.5 22.5V10.3125L17.75 19.875C16.4141 20.877 14.5859 20.877 13.25 19.875L0.5 10.3125Z" fill="#FFFBF9"/>
</g>
<defs>
<clipPath id="clip0_91_172">
<rect width="30" height="30" fill="white" transform="translate(0.5)"/>
</clipPath>
</defs>
</svg>
