<svg width="31" height="30" viewBox="0 0 31 30" fill="none" xmlns="http://www.w3.org/2000/svg">
<path d="M16.7961 27.8361C19.6016 24.3252 26 15.8158 26 11.0361C26 5.23926 21.2969 0.536133 15.5 0.536133C9.70312 0.536133 5 5.23926 5 11.0361C5 15.8158 11.3984 24.3252 14.2039 27.8361C14.8766 28.6728 16.1234 28.6728 16.7961 27.8361ZM15.5 7.53613C16.4283 7.53613 17.3185 7.90488 17.9749 8.56126C18.6312 9.21764 19 10.1079 19 11.0361C19 11.9644 18.6312 12.8546 17.9749 13.511C17.3185 14.1674 16.4283 14.5361 15.5 14.5361C14.5717 14.5361 13.6815 14.1674 13.0251 13.511C12.3687 12.8546 12 11.9644 12 11.0361C12 10.1079 12.3687 9.21764 13.0251 8.56126C13.6815 7.90488 14.5717 7.53613 15.5 7.53613Z" fill="#FFFBF9"/>
</svg>
