<svg width="100" height="100" viewBox="0 0 100 100" fill="none" xmlns="http://www.w3.org/2000/svg">
<circle cx="50" cy="50" r="50" fill="#FAFAFA"/>
<path d="M53.1991 37.34C53.8423 36.9124 54.361 36.7431 55.149 36.9391C56.1732 37.6664 56.0749 38.3779 56.0305 39.5117C55.7299 47.192 49.6429 53.1993 42.06 54.0492L42.059 64.0787C42.0587 64.6929 42.0392 65.3141 42.0921 65.9263C43.081 77.3969 59.196 80.4857 64.5159 70.1773C66.0137 67.2751 65.8199 64.4587 65.8189 61.3078L65.8176 58.9195C61.0187 58.2058 57.7103 53.9385 58.4553 49.0969C59.1985 44.2676 63.8285 41.2339 68.5579 42.012C77.6232 43.5035 77.9167 56.7738 69.0136 58.7412C68.6941 58.8118 68.3692 58.8512 68.0504 58.9195L68.0516 63.3697C68.0519 64.3462 68.0917 65.3374 67.9845 66.3094C67.2134 73.2959 61.0669 78.7353 54.0423 78.7383C46.8146 78.7412 40.4166 73.2083 39.8588 65.9165C39.8166 65.3644 39.8368 64.8047 39.837 64.2514L39.8387 54.0492C32.0043 53.3823 25.843 47.4684 25.455 39.5937C25.4114 38.7083 25.2937 37.6695 26.205 37.1776C26.8688 36.8185 27.3973 36.8093 28.0394 37.1776L28.0747 37.2097C28.9552 38.0206 28.6207 39.2931 28.7531 40.375C29.5097 46.5602 35.1039 50.9777 41.2514 50.8043C47.4682 50.6289 52.3308 45.8127 52.867 39.6779C52.9312 38.9434 52.8032 37.9888 53.1991 37.34ZM65.8176 54.9145C63.2733 54 61.6869 51.501 62.6655 48.8653C64.1248 44.9355 69.4283 44.827 71.0564 48.6091C72.2184 51.3076 70.7109 53.9667 68.0504 54.9145V56.6792C70.5678 56.2607 72.5031 54.4183 73.1595 51.9491C74.5974 46.5408 68.61 42.0012 63.5676 45.054C60.6402 46.8263 59.7126 50.954 61.5294 53.8453C62.5718 55.5039 63.9911 56.2599 65.8176 56.6792V54.9145Z" fill="#3F4047"/>
<path d="M65.8176 58.9195C61.0187 58.2058 57.7103 53.9385 58.4553 49.0969C59.1985 44.2676 63.8285 41.2339 68.5579 42.012C77.6232 43.5035 77.9167 56.7738 69.0136 58.7412C68.6941 58.8118 68.3692 58.8512 68.0504 58.9195V56.6792C70.5678 56.2607 72.5031 54.4183 73.1595 51.9491C74.5974 46.5408 68.61 42.0012 63.5676 45.054C60.6402 46.8263 59.7125 50.954 61.5294 53.8453C62.5718 55.5039 63.9911 56.2599 65.8176 56.6792V58.9195Z" fill="#F86D5A"/>
<path d="M66.8273 47.5639C68.4202 47.4881 69.7732 48.7174 69.85 50.3103C69.9268 51.9032 68.6982 53.2568 67.1053 53.3346C65.5111 53.4124 64.156 52.1827 64.0792 50.5883C64.0023 48.9941 65.2331 47.6397 66.8273 47.5639Z" fill="#C5CFD3"/>
<path d="M26.205 37.1776L26.2034 26.2113C26.2181 22.0015 27.8885 20.9152 31.8654 20.9333C31.6564 21.5252 31.669 22.0878 31.8654 22.6821C28.0152 22.8106 28.1449 23.5647 28.1497 27.1988L28.1482 33.4599C28.1485 34.5208 28.2562 36.1935 28.0394 37.1776C27.3974 36.8093 26.8688 36.8185 26.205 37.1776Z" fill="#C5CFD3"/>
<path d="M49.6237 20.9334C51.1439 20.8304 52.4833 20.9817 53.667 22.0146C55.3381 23.4725 55.1522 25.5138 55.1507 27.513L55.1503 35.0407C55.1506 35.6696 55.1813 36.3124 55.149 36.9392C54.361 36.7432 53.8423 36.9125 53.1991 37.3401C53.2281 36.4745 53.1984 35.594 53.1985 34.7268L53.2015 26.5172C53.2075 23.4609 52.6696 22.7947 49.6237 22.6822C49.7288 22.072 49.7518 21.5415 49.6237 20.9334Z" fill="#C5CFD3"/>
<path d="M49.6237 22.6821C48.7048 23.938 47.524 24.3231 45.9542 23.9093C43.8596 23.3573 43.7447 20.049 46.0064 19.6256C47.4903 19.3478 48.8822 19.4879 49.6237 20.9333C49.7518 21.5414 49.7288 22.0719 49.6237 22.6821Z" fill="#3F4047"/>
<path d="M31.8654 20.9333C32.3567 19.4595 34.3519 19.2617 35.5661 19.7116C37.3778 20.383 37.3806 23.0356 35.6099 23.8039C34.4468 24.3087 32.4249 24.0427 31.8654 22.6821C31.669 22.0878 31.6564 21.5252 31.8654 20.9333Z" fill="#3F4047"/>
</svg>
