<svg width="100" height="100" viewBox="0 0 100 100" fill="none" xmlns="http://www.w3.org/2000/svg">
<circle cx="50" cy="50" r="50" fill="#FAFAFA"/>
<path d="M66.4447 32.0303C68.299 31.9897 70.4818 31.7914 71.9377 33.1374C73.7465 34.8097 73.4049 36.7363 73.344 38.9464C73.2837 41.1267 73.1575 43.3045 73.0599 45.4834L72.2053 68.8269C72.098 71.9486 71.265 74.178 67.6914 74.2483C65.106 74.299 62.5085 74.249 59.922 74.2492L36.542 74.2514C33.5575 74.2512 29.6053 74.7781 28.8382 70.7476C28.6762 69.8962 28.7015 68.9523 28.6592 68.0852L27.5221 39.2319C27.4473 36.9183 27.103 35.1323 28.9401 33.2817C30.4706 31.7401 32.4703 31.8847 34.4713 31.8872C34.4455 32.3022 34.362 32.7194 34.2953 33.1295C32.7599 42.0752 38.9412 50.4617 47.8211 51.968C54.1935 53.0489 60.5102 50.2922 64.1242 45.0087C66.5475 41.4661 67.1794 37.315 66.6429 33.1295L66.4447 32.0303Z" fill="#8ED7F2"/>
<path d="M66.4447 32.0303C68.299 31.9897 70.4818 31.7914 71.9377 33.1374C73.7465 34.8097 73.4049 36.7363 73.344 38.9464C73.2837 41.1267 73.1575 43.3045 73.0599 45.4834L72.2053 68.8269C72.098 71.9486 71.265 74.178 67.6914 74.2483C65.106 74.299 62.5085 74.249 59.922 74.2492L36.542 74.2514C33.5575 74.2512 29.6053 74.7781 28.8382 70.7476C28.6762 69.8962 28.7015 68.9523 28.6592 68.0852L27.5221 39.2319C27.4473 36.9183 27.103 35.1323 28.9401 33.2817C30.4706 31.7401 32.4703 31.8847 34.4713 31.8872C34.4455 32.3022 34.362 32.7194 34.2953 33.1295C31.4415 33.1347 28.5802 33.2469 28.6054 37.0054C28.621 39.309 28.7733 41.6255 28.8728 43.9272L29.7685 65.7437C29.8387 67.5602 29.6408 71.0054 30.9364 72.2554C32.2826 73.5541 35.7826 73.147 37.5247 73.1461L60.2522 73.1447C62.7449 73.1445 65.251 73.2024 67.7419 73.1392C70.6992 73.0644 70.9173 71.2642 71.0068 68.7592L72.2272 38.0322C72.2814 36.6053 72.4327 35.2103 71.2716 34.1236C69.9082 32.847 68.3206 33.218 66.6429 33.1295L66.4447 32.0303Z" fill="#5EBBF2"/>
<path d="M50.2139 20.7662C58.4731 20.6045 65.3005 27.1671 65.4653 35.4263C65.6301 43.6856 59.0699 50.5153 50.8108 50.6831C42.5473 50.851 35.7133 44.2867 35.5483 36.0233C35.3835 27.7598 41.9503 20.9281 50.2139 20.7662ZM51.1026 48.1509C57.9585 47.8135 63.2424 41.9815 62.9035 35.1258C62.5647 28.27 56.7316 22.9875 49.876 23.3278C43.0224 23.668 37.7418 29.499 38.0806 36.3526C38.4193 43.2061 44.2491 48.4879 51.1026 48.1509Z" fill="#FE7C6E"/>
<path d="M49.9132 37.4688C47.8535 37.0626 47.2725 34.2035 49.08 33.0446C52.4335 30.8947 54.8516 36.6867 51.0848 37.4688V45.4552C50.8968 45.7873 50.4435 46.1471 50.0924 45.7828C49.7594 45.4374 49.9132 43.1553 49.9136 42.5396L49.9131 39.1886C49.912 38.6157 49.8879 38.0412 49.9132 37.4688Z" fill="#FE7C6E"/>
<path d="M49.9132 37.4688C49.9088 36.8004 49.6374 33.6916 51.0848 35.2629C51.0956 35.998 51.087 36.7338 51.0848 37.4688V45.4553C50.8969 45.7874 50.4435 46.1471 50.0924 45.7828C49.7594 45.4374 49.9132 43.1553 49.9137 42.5397L49.9131 39.1887C49.912 38.6158 49.8879 38.0413 49.9132 37.4688Z" fill="#727373"/>
<path d="M40.2431 34.7056C40.7169 34.6707 41.179 34.681 41.6525 34.7056V36.645H40.2431C40.2062 36.0042 40.2449 35.3485 40.2431 34.7056Z" fill="#727373"/>
<path d="M43.4172 41.3197C43.8281 41.5857 44.4271 42.2795 44.7944 42.6537C44.4474 42.9691 44.1262 43.3012 43.8121 43.6488C43.4638 43.4204 42.7712 42.5872 42.4514 42.2472C42.7384 41.9056 43.0819 41.6125 43.4172 41.3197Z" fill="#727373"/>
<path d="M59.4619 34.7056H60.8255V36.645C60.372 36.66 59.9151 36.6633 59.4619 36.645V34.7056Z" fill="#727373"/>
<path d="M43.8121 27.9897C44.054 28.0391 44.6105 28.7343 44.7944 28.94C44.2709 29.326 43.8738 29.8145 43.4172 30.2699C43.2875 30.26 42.6 29.5072 42.4514 29.3597C42.9087 28.9207 43.3145 28.3791 43.8121 27.9897Z" fill="#727373"/>
<path d="M49.4381 25.3707C50.1141 25.4025 50.8052 25.3716 51.483 25.3707V26.6413H49.4381V25.3707Z" fill="#727373"/>
<path d="M57.3163 27.9897C57.4641 28.076 58.3898 29.1377 58.5959 29.3597C58.2133 29.6115 57.9144 29.9419 57.5991 30.2699C57.1224 29.9154 56.7387 29.3578 56.3112 28.94C56.612 28.5729 56.9447 28.2818 57.3163 27.9897Z" fill="#727373"/>
<path d="M57.5991 41.4368C57.9373 41.7456 58.2733 42.0543 58.5959 42.3797L57.3163 43.6488C56.9637 43.3581 56.639 42.9762 56.3112 42.6538C56.7226 42.2309 57.1425 41.8112 57.5991 41.4368Z" fill="#727373"/>
<path d="M47.8125 74.979H66.8332C66.7059 77.6944 66.716 78.3251 63.7642 78.3227L53.1917 78.3209L37.6111 78.3227C34.4228 78.3229 34.2757 78.1977 34.0977 74.979H47.8125Z" fill="#B8B9BA"/>
</svg>
