<svg width="110" height="110" viewBox="0 0 110 110" fill="none" xmlns="http://www.w3.org/2000/svg">
<g clip-path="url(#clip0_42_222)">
<path d="M17.5 20.5C19.3333 21.1667 24.4 23.3 30 26.5C37 30.5 39.5 34 43 40C45.8 44.8 47.1667 51.3333 47.5 54C47.3333 51.3333 48.1 43.7 52.5 34.5C56.9 25.3 66 19 70 17C73.3333 14.8333 81.9 9.9 89.5 7.5C95.607 5.57148 101.692 4.58997 105.318 4.19229C106.488 4.06393 107.466 5.01543 107.427 6.19197L107 19C107 22.3333 107 26.5 105.5 37.5C103.727 50.5 97.1206 55.8063 92.0001 60.5C86.0001 66 78.0001 71 68 75.5C58.1783 79.9197 51.3333 84 49.5 86.5C47.1667 89.3333 46.5001 96.5 47.5 105.5C47.1667 100 43.9 88.1 41.5 84.5C38.5 80 31.7692 74.5 28 71C21.0001 64.5 14.5001 61 9.5 54C3.78128 45.994 4.00024 39 3.00012 33L2 24.25V18.6632C2 17.3309 3.27815 16.3711 4.55762 16.7425L9.75 18.25L17.5 20.5Z" stroke="#BE9A7F" stroke-width="5"/>
<path d="M45.0001 92.5L48.2501 82.5L51.5001 72.5C53.5001 66 55.7001 60.8 60.5001 54C65.3001 47.2 78.6668 37.1667 84.5001 33" stroke="#BE9A7F" stroke-width="5"/>
</g>
<defs>
<clipPath id="clip0_42_222">
<rect width="110" height="110" fill="white"/>
</clipPath>
</defs>
</svg>
